<svg version="1.2" xmlns="http://www.w3.org/2000/svg" viewBox="0 0 513 358" width="215" height="150">
	<title>latvia-flag-icon</title>
	<style>
		.s0 { fill: #9d2235 } 
		.s1 { fill: #ffffff } 
		.s2 { fill: #cccccc } 
	</style>
	<g>
		<path class="s0" d="m28.5 0.3h456c15.5 0 28.2 12.7 28.2 28.2v300.1c0 15.5-12.7 28.2-28.2 28.2h-456c-15.5 0-28.2-12.7-28.2-28.2v-300.1c0-15.5 12.7-28.2 28.2-28.2z"/>
		<path class="s1" d="m0.3 142.9h512.4v71.3h-512.4z"/>
		<path class="s2" d="m28.5 0h456c7.9 0 15 3.2 20.1 8.4 5.2 5.1 8.4 12.2 8.4 20.1v300.1c0 7.8-3.2 14.9-8.4 20.1-5.1 5.2-12.2 8.4-20.1 8.4h-456c-7.9 0-15-3.2-20.1-8.4-5.2-5.2-8.4-12.3-8.4-20.1v-300.1c0-7.9 3.2-15 8.4-20.1 5.1-5.2 12.2-8.4 20.1-8.4zm456 0.6h-456c-7.7 0-14.6 3.2-19.7 8.2-5 5.1-8.2 12-8.2 19.7v300.1c0 7.6 3.2 14.6 8.2 19.7 5.1 5 12 8.1 19.7 8.1h456c7.7 0 14.6-3.1 19.7-8.1 5-5.1 8.2-12.1 8.2-19.7v-300.1c0-7.7-3.2-14.6-8.2-19.7-5.1-5-12-8.2-19.7-8.2z"/>
	</g>
</svg>